<?xml version="1.0" encoding="utf-8"?>
<!-- Generator: Adobe Illustrator 21.0.0, SVG Export Plug-In . SVG Version: 6.00 Build 0)  -->
<svg version="1.1" id="图层_1" xmlns="http://www.w3.org/2000/svg" xmlns:xlink="http://www.w3.org/1999/xlink" x="0px" y="0px"
	 viewBox="0 0 1280 1280" style="enable-background:new 0 0 1280 1280;" xml:space="preserve">
<style type="text/css">
	.st0{fill:#C2EAFC;}
	.st1{fill:#D8F1FD;}
	.st2{fill:#EDF9FE;}
	.st3{fill:none;stroke:#354052;stroke-width:5;}
	.st4{fill:#354052;}
	.st5{fill:#00AAFF;}
	.st6{fill:#FFFFFF;}
	.st7{fill:none;stroke:#354052;stroke-width:11;}
	.st8{fill:#BFC7D2;}
	.st9{fill:#E2DAFB;}
	.st10{fill:#8360E7;}
	.st11{fill:#AAFAC8;}
	.st12{fill:#66CC99;}
	.st13{fill:none;stroke:#354052;stroke-width:20;}
	.st14{fill:none;stroke:#354052;stroke-width:3;}
	.st15{opacity:0.2;fill:#8360E7;}
	.st16{opacity:0.8;fill:#8360E7;}
	.st17{opacity:0.44;fill:#8360E7;}
	.st18{fill:none;stroke:#354052;stroke-width:8;}
	.st19{opacity:0.2;fill:#00AAFF;}
	.st20{opacity:0.4;fill:#00AAFF;}
	.st21{opacity:0.8;fill:#00AAFF;}
	.st22{opacity:0.8;fill:#00B5FF;}
	.st23{fill:#0ABDFF;}
	.st24{fill:#0086FF;}
	.st25{fill:none;stroke:#00AAFF;}
	.st26{fill:none;stroke:#000000;}
	.st27{fill:none;stroke:#354052;stroke-width:10;}
	.st28{display:none;fill:#354052;}
	.st29{fill:#8360E7;stroke:#FFFFFF;stroke-width:3;stroke-miterlimit:10;}
	.st30{font-family:'ArialRoundedMTBold';}
	.st31{font-size:168.8839px;}
	.st32{opacity:0.7;fill:#FFFFFF;}
	.st33{fill:#66CC99;stroke:#FFFFFF;stroke-width:7;stroke-miterlimit:10;}
</style>
<path class="st9" d="M389,1013.1C260.8,929,176.1,784,176.1,619.3c0-260.1,210.8-470.9,470.9-470.9c260.1,0,470.9,210.8,470.9,470.9
	c0,164.8-84.7,309.7-212.9,393.9H389z"/>
<path class="st4" d="M1028.1,996H223.2c-7.1,0-12.8,5.8-12.8,12.8c0,7.1,5.8,12.8,12.8,12.8h804.9c7.1,0,12.8-5.8,12.8-12.8
	C1040.9,1001.7,1035.2,996,1028.1,996 M1070.9,996c-7.1,0-12.8,5.8-12.8,12.9c0,7.1,5.8,12.8,12.9,12.8l0,0
	c7.1,0,12.8-5.8,12.8-12.9C1083.8,1001.7,1078,996,1070.9,996"/>
<path class="st10" d="M814,1055.9H351.7c-7.1,0-12.8,5.8-12.8,12.8s5.8,12.8,12.8,12.8H814c7.1,0,12.8-5.8,12.8-12.8
	S821.1,1055.9,814,1055.9 M916.8,1055.9h-59.9c-7.1,0-12.8,5.8-12.8,12.8s5.8,12.8,12.8,12.8h59.9c7.1,0,12.8-5.8,12.8-12.8
	S923.9,1055.9,916.8,1055.9 M728.4,1115.9H437.3c-7.1,0-12.8,5.8-12.8,12.8c0,7.1,5.8,12.8,12.8,12.8h291.1
	c7.1,0,12.8-5.8,12.8-12.8C741.3,1121.6,735.5,1115.9,728.4,1115.9 M796.9,1115.9h-25.7c-7.1,0-12.8,5.8-12.8,12.8
	c0,7.1,5.8,12.8,12.8,12.8h25.7c7.1,0,12.8-5.8,12.8-12.8C809.8,1121.6,804,1115.9,796.9,1115.9"/>
<path class="st8" d="M253.2,225.9c-7.1,0-12.8,5.8-12.8,12.9c0,7.1,5.8,12.8,12.9,12.8c7.1,0,12.8-5.8,12.8-12.9
	C266.1,231.7,260.3,225.9,253.2,225.9"/>
<path class="st8" d="M1190.2,914.9c-7.1,0-12.8,5.8-12.8,12.9c0,7.1,5.8,12.8,12.9,12.8c7.1,0,12.8-5.8,12.8-12.9
	C1203.1,920.7,1197.3,914.9,1190.2,914.9"/>
<path class="st8" d="M1066,128.1h-8.6v-8.6c0-4.7-3.8-8.6-8.6-8.6s-8.6,3.8-8.6,8.6v8.6h-8.6c-4.7,0-8.6,3.8-8.6,8.6
	c0,4.7,3.8,8.6,8.6,8.6h8.6v8.6c0,4.7,3.8,8.6,8.6,8.6s8.6-3.8,8.6-8.6v-8.6h8.6c4.7,0,8.6-3.8,8.6-8.6
	C1074.5,132,1070.7,128.1,1066,128.1"/>
<path class="st8" d="M136.5,890.4h-8.6v-8.6c0-4.7-3.8-8.6-8.6-8.6s-8.6,3.8-8.6,8.6v8.6h-8.6c-4.7,0-8.6,3.8-8.6,8.6
	s3.8,8.6,8.6,8.6h8.6v8.6c0,4.7,3.8,8.6,8.6,8.6s8.6-3.8,8.6-8.6v-8.6h8.6c4.7,0,8.6-3.8,8.6-8.6S141.2,890.4,136.5,890.4"/>
<g>
	
		<image style="overflow:visible;opacity:0.75;" width="313" height="419" xlink:href="33AA1889.png"  transform="matrix(1 0 0 1 86 295)">
	</image>
	<g>
		<text transform="matrix(1 0 0 1 95.8066 451.3545)" class="st29 st30 st31">Ent</text>
	</g>
</g>
<path class="st15" d="M651.9,311c165.5,0,299.7,134.2,299.7,299.7S817.4,910.4,651.9,910.4S352.2,776.2,352.2,610.7
	S486.4,311,651.9,311"/>
<g>
	
		<image style="overflow:visible;opacity:0.75;" width="684" height="679" xlink:href="33AA188A.png"  transform="matrix(1 0 0 1 307 254)">
	</image>
	<g>
		<g>
			<polyline class="st10" points="367,578.9 367.6,578.9 390.3,771.3 367.3,772.4 			"/>
			<polyline class="st15" points="597.6,622.2 597.4,622.6 368.2,578.5 372,562.5 			"/>
			<polyline class="st15" points="597.7,622.6 597.8,622.8 414.5,815.4 407.2,808.2 			"/>
			<path class="st16" d="M765.1,326.6l0.2,0.1l-9.9,170.2c0,0-2.6-5.6-3.9-5.7c-1.3-0.1-4.9,5-4.9,5"/>
			<path class="st16" d="M930.5,681.5l-0.3,0.2L741.7,507.1c0,0,9.1,2.2,10.6,0.8c1.5-1.5-0.9-10.6-0.9-10.6"/>
			<path class="st16" d="M599.5,622.6l-0.2-0.3l148.2-128.6c0,0-1.8,7.6-0.6,9.2c1.3,1.6,9.2,1.6,9.2,1.6"/>
			<circle class="st10" cx="769.8" cy="296.8" r="34.6"/>
			<circle class="st10" cx="749.6" cy="501.4" r="17.3"/>
			<circle class="st10" cx="924" cy="677.2" r="44.7"/>
			<circle class="st10" cx="597.6" cy="623.2" r="13.7"/>
			<polyline class="st16" points="937,679.5 937,680.1 448,830.8 441.8,808.6 			"/>
			<polyline class="st10" points="755.8,314.6 756.2,315.1 421.7,817.5 402.8,804.3 			"/>
			<circle class="st10" cx="367" cy="571.3" r="22.3"/>
			<circle class="st10" cx="388.6" cy="837.9" r="72.8"/>
		</g>
	</g>
</g>
<circle class="st6" cx="770.1" cy="297" r="22"/>
<circle class="st32" cx="749.6" cy="501.2" r="10.6"/>
<circle class="st6" cx="597.5" cy="623.1" r="6.5"/>
<circle class="st6" cx="367.1" cy="571" r="12.1"/>
</svg>
