<svg id="图层_1" data-name="图层 1" xmlns="http://www.w3.org/2000/svg" viewBox="0 0 1280 1280"><defs><style>.cls-1,.cls-2{fill:#f8d826;}.cls-1{opacity:0.5;}.cls-3{fill:#edf9fe;}.cls-4,.cls-7{fill:none;stroke:#354052;}.cls-10,.cls-4{stroke-width:5px;}.cls-5{fill:#354052;}.cls-6{fill:#fff;}.cls-7{stroke-width:11px;}.cls-8{fill:#bfc7d2;}.cls-10,.cls-11,.cls-9{fill:#f7b600;}.cls-10,.cls-9{stroke:#fff;stroke-miterlimit:10;}.cls-9{stroke-width:4px;}</style></defs><title>图</title><path class="cls-1" d="M409.72,1019.8c-125.26-82.24-208-223.86-208-384.91,0-254.17,206-460.21,460.21-460.21s460.21,206,460.21,460.21c0,161-82.78,302.67-208,384.91Z"/><path class="cls-2" d="M661.9,333.67c161.74,0,292.86,131.12,292.86,292.86S823.64,919.39,661.9,919.39,369,788.27,369,626.53,500.15,333.67,661.9,333.67"/><path id="b" class="cls-3" d="M183.34,905.1H410.68c3.06,0,5.54.55,5.54,1.24v93.33c0,.68-2.48,1.24-5.54,1.24H183.34c-3.06,0-5.54-.55-5.54-1.24V906.34C177.8,905.66,180.28,905.1,183.34,905.1Z"/><path class="cls-4" d="M190.33,905.1H399.12c5.78,0,10.47,1,10.47,2.29v88.19c0,1.27-4.69,2.29-10.47,2.29H190.33c-5.78,0-10.47-1-10.47-2.29V907.39C179.85,906.13,184.54,905.1,190.33,905.1Z"/><rect class="cls-5" x="201.93" y="946.35" width="55" height="12.5" rx="4.96" ry="4.96"/><path id="b-2" data-name="b" class="cls-3" d="M184.93,786.35H410.72c3,0,5.5.56,5.5,1.24v93.77c0,.69-2.46,1.24-5.5,1.24H184.93c-3,0-5.5-.56-5.5-1.24V787.6C179.43,786.91,181.89,786.35,184.93,786.35Z"/><path class="cls-4" d="M190.33,786.35H399.12c5.78,0,10.47,1,10.47,2.29v88.19c0,1.27-4.69,2.29-10.47,2.29H190.33c-5.78,0-10.47-1-10.47-2.29V788.64C179.85,787.38,184.54,786.35,190.33,786.35Z"/><rect class="cls-5" x="201.93" y="827.6" width="55" height="12.5" rx="4.96" ry="4.96"/><path class="cls-2" d="M825.06,1061.64H373.22a12.55,12.55,0,0,0,0,25.1H825.06a12.55,12.55,0,1,0,0-25.1m100.41,0H866.9a12.55,12.55,0,1,0,0,25.1h58.57a12.55,12.55,0,0,0,0-25.1m-184.09,58.57H456.89a12.55,12.55,0,0,0,0,25.1h284.5a12.55,12.55,0,0,0,0-25.1m66.94,0h-25.1a12.55,12.55,0,0,0,0,25.1h25.1a12.55,12.55,0,1,0,0-25.1"/><rect id="b-3" data-name="b" class="cls-6" x="310.46" y="199.79" width="460.21" height="828.39" rx="75.31" ry="75.31"/><path id="b-4" data-name="b" class="cls-3" d="M406,262.28H753.08V958.54c0,38.45-27.92,69.63-62.36,69.63H434.37c-34.44,0-62.36-31.17-62.36-69.63V308.23C372,269.78,371.52,262.28,406,262.28Z"/><rect class="cls-7" x="323.01" y="212.34" width="435.11" height="803.28" rx="19.84" ry="19.84"/><path class="cls-5" d="M356.48,410.36h25.1a12.55,12.55,0,0,1,12.55,12.55h0a12.55,12.55,0,0,1-12.55,12.55h-25.1a12.55,12.55,0,0,1-12.55-12.55h0A12.55,12.55,0,0,1,356.48,410.36Z"/><path class="cls-5" d="M356.48,614h25.1a12.55,12.55,0,0,1,12.55,12.55h0a12.55,12.55,0,0,1-12.55,12.55h-25.1a12.55,12.55,0,0,1-12.55-12.55h0A12.55,12.55,0,0,1,356.48,614Z"/><path class="cls-5" d="M356.48,822.29h25.1a12.55,12.55,0,0,1,12.55,12.55h0a12.55,12.55,0,0,1-12.55,12.55h-25.1a12.55,12.55,0,0,1-12.55-12.55h0A12.55,12.55,0,0,1,356.48,822.29Z"/><path class="cls-5" d="M415.05,410.36h334.7a12.55,12.55,0,0,1,12.55,12.55h0a12.55,12.55,0,0,1-12.55,12.55H415.05a12.55,12.55,0,0,1-12.55-12.55h0A12.55,12.55,0,0,1,415.05,410.36Z"/><path class="cls-3" d="M334.85,572.17a12.55,12.55,0,0,0,.71-4.18V526.12a12.55,12.55,0,1,1-25.1,0V568a12.52,12.52,0,0,0,.71,4.17,12.55,12.55,0,1,1,23.68,0Z"/><path class="cls-8" d="M1153.44,653.88A12.56,12.56,0,1,0,1166,666.43a12.56,12.56,0,0,0-12.56-12.55"/><path class="cls-8" d="M870.68,160.56h-8.37V152.2a8.37,8.37,0,0,0-16.74,0v8.37h-8.37a8.37,8.37,0,1,0,0,16.74h8.37v8.37a8.37,8.37,0,0,0,16.74,0V177.3h8.37a8.37,8.37,0,1,0,0-16.74"/><path class="cls-5" d="M1034.25,1003.07H247.7a12.55,12.55,0,0,0,0,25.1h786.55a12.55,12.55,0,0,0,0-25.1m41.84,0a12.56,12.56,0,0,0,0,25.11h0a12.56,12.56,0,1,0,0-25.11"/><path class="cls-9" d="M410.2,195.41H378V163.27a32.15,32.15,0,0,0-64.29,0v32.15H281.61a32.15,32.15,0,0,0,0,64.29h32.15v32.15a32.15,32.15,0,0,0,64.29,0V259.71H410.2a32.15,32.15,0,0,0,0-64.29"/><path class="cls-10" d="M586.06,743l-16-16,16-16A22.69,22.69,0,0,0,554,678.77l-16,16-16-16a22.69,22.69,0,0,0-32.09,32.09l16,16-16,16A22.69,22.69,0,0,0,521.88,775l16-16,16,16A22.69,22.69,0,0,0,586.06,743"/><path class="cls-8" d="M101.27,743.68H92.9v-8.37a8.37,8.37,0,0,0-16.74,0v8.37H67.8a8.37,8.37,0,1,0,0,16.74h8.37v8.37a8.37,8.37,0,0,0,16.74,0v-8.37h8.37a8.37,8.37,0,1,0,0-16.74"/><path id="b-5" data-name="b" class="cls-3" d="M642.63,906.21h228c3.07,0,5.55.55,5.55,1.22v92.25c0,.67-2.49,1.22-5.55,1.22h-228c-3.07,0-5.55-.55-5.55-1.22V907.43C637.08,906.76,639.57,906.21,642.63,906.21Z"/><path class="cls-4" d="M658.2,905H866.9c5.78,0,10.47,1,10.47,2.28v87.77c0,1.26-4.69,2.28-10.47,2.28H658.2c-5.78,0-10.47-1-10.47-2.28V907.31C647.73,906,652.42,905,658.2,905Z"/><rect class="cls-5" x="670.22" y="946.46" width="54.45" height="11.84" rx="4.8" ry="4.8"/><path id="b-6" data-name="b" class="cls-3" d="M654.19,785.47H870.91c2.91,0,5.28.56,5.28,1.25v94.56c0,.69-2.36,1.25-5.28,1.25H654.19c-2.91,0-5.28-.56-5.28-1.25V786.72C648.92,786,651.28,785.47,654.19,785.47Z"/><path class="cls-4" d="M658.2,786.66H866.9c5.78,0,10.47,1,10.47,2.28V876.7c0,1.26-4.69,2.28-10.47,2.28H658.2c-5.78,0-10.47-1-10.47-2.28V788.94C647.73,787.68,652.42,786.66,658.2,786.66Z"/><rect class="cls-5" x="670.22" y="828.09" width="54.45" height="11.84" rx="4.8" ry="4.8"/><path id="b-7" data-name="b" class="cls-3" d="M647.48,664.73H880c3.13,0,5.66.57,5.66,1.28v96.87c0,.71-2.54,1.28-5.66,1.28H647.48c-3.13,0-5.66-.57-5.66-1.28V666C641.81,665.31,644.35,664.73,647.48,664.73Z"/><path class="cls-4" d="M658.2,665.92H866.9c5.78,0,10.47,1,10.47,2.28V756c0,1.26-4.69,2.28-10.47,2.28H658.2c-5.78,0-10.47-1-10.47-2.28V668.2C647.73,666.94,652.42,665.92,658.2,665.92Z"/><rect class="cls-5" x="670.22" y="707.35" width="54.45" height="11.84" rx="4.8" ry="4.8"/><path id="b-8" data-name="b" class="cls-3" d="M647.26,546.36H870.74c3,0,5.44.57,5.44,1.28v96.87c0,.71-2.44,1.28-5.44,1.28H647.26c-3,0-5.44-.57-5.44-1.28V547.65C641.81,546.94,644.25,546.36,647.26,546.36Z"/><path class="cls-4" d="M658.2,547.55H866.9c5.78,0,10.47,1,10.47,2.28V637.6c0,1.26-4.69,2.28-10.47,2.28H658.2c-5.78,0-10.47-1-10.47-2.28V549.83C647.73,548.57,652.42,547.55,658.2,547.55Z"/><rect class="cls-5" x="670.22" y="588.98" width="54.45" height="11.84" rx="4.8" ry="4.8"/><path class="cls-8" d="M835.94,574.77h-2.37v-1.18a1.18,1.18,0,1,0-2.37,0v1.18H830a1.18,1.18,0,1,0,0,2.37h1.18v1.18a1.18,1.18,0,1,0,2.37,0v-1.18h1.18a1.18,1.18,0,0,0,0-2.37"/><circle class="cls-8" cx="832.39" cy="594.9" r="1.18"/><path class="cls-11" d="M987.91,1003.27H772v-1.18c-39.17-7.18-65.61-47.78-59.05-90.68s43.63-71.85,82.8-64.67a66.85,66.85,0,0,1,11.08,3c16.48-34.81,49.3-56.66,85.11-56.66,53,0,96,47,96,105.08,26.5,0,57.44,23.52,57.44,52.54S1014.41,1003.27,987.91,1003.27Z"/><path class="cls-3" d="M883.29,617.39c0-3.9,0-2.46,0-3.63V579.29c0,5.71-2.65,10.33-5.92,10.33s-5.92-4.62-5.92-10.33v34.47a20.26,20.26,0,0,0,0,3.63c0-5.85.88-11.48,4-13.37s6.46.94,7.54,6.33a45.87,45.87,0,0,1,.33,7Z"/><path class="cls-3" d="M883.29,735.76c0-3.9,0-2.46,0-3.63V697.66c0,5.71-2.65,10.33-5.92,10.33s-5.92-4.62-5.92-10.33v34.47a20.26,20.26,0,0,0,0,3.63c0-5.85.88-11.48,4-13.37s6.46.94,7.54,6.33a45.87,45.87,0,0,1,.33,7Z"/><path class="cls-6" d="M1049.4,457.46H957.95c-10.82,0-19.6,6.42-19.6,14.34s8.77,14.34,19.6,14.34h91.45c10.82,0,19.6-6.42,19.6-14.34s-8.77-14.34-19.6-14.34"/></svg>