<svg id="图层_1" data-name="图层 1" xmlns="http://www.w3.org/2000/svg" viewBox="0 0 3824 776"><defs><style>.cls-1{fill:#fbb613;}.cls-2{fill:#f6c535;}.cls-3{fill:#ffd476;}.cls-4{fill:#4ebb84;}.cls-5{fill:#96d1a5;}.cls-6{fill:#97d0a5;}.cls-7{fill:#7dcdce;}.cls-8{fill:#8fa8a5;}.cls-9{fill:#495655;}.cls-10{fill:#fff;}</style></defs><title>lllll</title><polygon class="cls-1" points="564.44 401.15 609.7 370.87 609.7 726.22 564.44 760.95 564.44 401.15"/><polygon class="cls-1" points="211 213.65 256.26 183.37 256.26 538.72 211 566.98 211 213.65"/><polygon class="cls-2" points="564.44 761.29 211.06 566.92 211.06 213.54 564.44 401.44 564.44 761.29"/><polygon class="cls-3" points="256.26 183.37 609.7 370.87 564.44 401.04 211 213.54 256.26 183.37"/><polygon class="cls-4" points="650.65 340.81 695.91 310.52 695.91 665.87 650.65 700.6 650.65 340.81"/><polygon class="cls-5" points="342.46 123.02 695.91 310.52 650.65 340.69 297.21 153.2 342.46 123.02"/><polygon class="cls-6" points="728.23 286.93 773.49 256.64 773.49 611.99 728.23 646.72 728.23 286.93"/><polygon class="cls-7" points="420.05 69.15 773.49 256.64 728.23 286.81 374.79 99.32 420.05 69.15"/><polygon class="cls-7" points="804.74 236.28 850 206 850 561.35 804.74 593.92 804.74 236.28"/><polygon class="cls-8" points="496.56 18.5 850 206 804.74 236.17 451.3 48.67 496.56 18.5"/><path class="cls-9" d="M1159,300.09c-7.79,0-11.7,2.65-11.7,8V429.84q0,25.53,18.61,41t56.92,15.41q38.29,0,56.9-15.41t18.61-41V308.06q0-8-13.29-8v-9.56H1359v9.56q-11.71,0-11.7,8V442.61a71,71,0,0,1-7.44,31.64q-7.46,15.17-22.61,26.87t-38.82,18.35q-23.67,6.64-55.57,6.65t-55.57-6.65q-23.67-6.67-38.84-18.35t-22.59-26.87a70.71,70.71,0,0,1-7.44-31.64V308.06a6.55,6.55,0,0,0-3.2-6.12q-3.18-1.87-12.23-1.86v-9.56h76v9.56Z"/><path class="cls-9" d="M1441.44,514.94q9.57,0,9.58-8V308.06q0-8-9.58-8v-9.56h78.18v9.56c-2.49.35-3.73,1.24-3.73,2.65q0,2.66,11.7,14.37l127.64,135.08V308.06q0-8-10.64-8v-9.56h64.89v9.56q-9.57,0-9.58,8V507q0,8,9.58,8v9.58h-69.13v-9.58c2.47,0,3.71-.88,3.71-2.65,0-1.43-1.67-3.91-5.06-7.46s-7.18-7.62-11.42-12.23l-131.9-140.38V507q0,8,11.17,8v9.58h-65.42v-9.58Z"/><path class="cls-9" d="M1800.95,514.94q8.5,0,11.7-1.86t3.18-6.12V308.06q0-4.25-3.18-6.12t-11.7-1.86v-9.56h80.83v9.56q-14.89,0-14.88,8V507q0,8,14.88,8v9.58h-80.83v-9.58Z"/><path class="cls-9" d="M2342.86,367.63l-6.38-3.73c.71-3.53,1.06-5.48,1.06-5.85,0-3.18-2.3-6.65-6.91-10.36a77.28,77.28,0,0,0-18.08-10.38,133.61,133.61,0,0,0-25.26-7.71,139.16,139.16,0,0,0-28.46-2.94,148.62,148.62,0,0,0-37.22,4.53,88.58,88.58,0,0,0-30.85,14.35,72,72,0,0,0-21.26,25.28q-8,15.41-8,37.76t8.52,37.49a72,72,0,0,0,22.06,24.46,94.53,94.53,0,0,0,30,13.56,127.72,127.72,0,0,0,31.93,4.26,279.9,279.9,0,0,0,43.34-3.2,117.81,117.81,0,0,0,37.49-12.23V439.43h-54.78a20.32,20.32,0,0,0-10.11,2.39c-2.83,1.59-4.61,4.53-5.32,8.79h-9.56V395.82h9.56q1.07,5.32,5.32,6.91a28.81,28.81,0,0,0,10.11,1.59h104.23v9.58c-3.2,1.41-5.32,3-6.38,4.77s-1.61,4.44-1.61,8v50.52c0,3.18.45,5.4,1.35,6.65s3.1,2.57,6.65,4v6.38q-4.8,3.18-15.17,8.77a171.9,171.9,0,0,1-26.05,10.91,233.94,233.94,0,0,1-36.43,8.77,282.83,282.83,0,0,1-46.26,3.47q-34.59,0-62.51-7.71t-47.32-23.14a103.8,103.8,0,0,1-29.78-37.49q-10.37-22.08-10.38-50.25t10.38-50.27a106.06,106.06,0,0,1,29.78-37.75q19.39-15.69,47.32-23.93t62.51-8.24a162.06,162.06,0,0,1,36.69,3.73,242.59,242.59,0,0,1,27.64,8,168.5,168.5,0,0,1,19.67,8c5,2.49,8.69,3.73,11.17,3.73a19.27,19.27,0,0,0,6.38-.8,20,20,0,0,0,5.32-3.47l6.38,3.2-30.84,58Z"/><path class="cls-9" d="M2604.52,391.56q52.11,0,52.11-33,0-13.3-12.5-21t-39.61-7.71h-84v61.69Zm1.06-101q47.34,0,73.92,15.68t26.58,53.45a58.68,58.68,0,0,1-5.32,25.52,64.41,64.41,0,0,1-14.09,19.41,75.18,75.18,0,0,1-19.41,13.29,109.59,109.59,0,0,1-21.81,7.71l52.13,76.06a30.68,30.68,0,0,0,9.3,8.76,45.21,45.21,0,0,0,10.91,4.53v9.58h-81.36v-9.58c4.61,0,6.91-1.59,6.91-4.79,0-3.55-2.67-9-8-16.47l-42-62.77h-73.92V507a6.41,6.41,0,0,0,3.45,6.12,14,14,0,0,0,6.65,1.86v9.58H2458.8v-9.58q9.57,0,9.56-8V308.06q0-8-9.56-8v-9.56Z"/><path class="cls-9" d="M2927.84,426.67l-43.08-89.35L2847,426.67Zm-177.63,88.27a16.23,16.23,0,0,0,10.38-6.12,56.42,56.42,0,0,0,6.12-9.3L2846,326.67q3.18-7.43,5.06-12a22.81,22.81,0,0,0,1.86-8.77c0-2.12-.45-3.47-1.33-4s-1.88-1.14-2.94-1.86v-9.56h80.3v9.56a11.75,11.75,0,0,1-3.45,1.59c-1.24.37-1.88,1.77-1.88,4.26a17.35,17.35,0,0,0,2.41,7.71q2.38,4.52,5.06,10.38l86.15,180.8a19.1,19.1,0,0,0,5.85,6.91,24.33,24.33,0,0,0,6.91,3.2v9.58h-75.53v-8a11.67,11.67,0,0,0,5.59-1.59c2-1.06,2.94-3,2.94-5.85a16,16,0,0,0-1.06-5.85c-.71-1.77-1.61-4.08-2.67-6.91L2944.87,466H2831.05l-14.88,28.72c-1.43,2.83-2.57,5.4-3.47,7.71a17.55,17.55,0,0,0-1.33,6.12c0,2.83.9,4.61,2.67,5.32a20.61,20.61,0,0,0,7.44,1.06v9.58h-71.27v-9.58Z"/><path class="cls-9" d="M3227.26,387.83q15.41,0,25.79-5.59t10.38-22.59q0-16.48-10.38-23.14t-25.79-6.65h-89.35v58Zm-140.4-79.77q0-8-13.29-8v-9.56h154.75q43.09,0,64.62,15.41t21.53,53.72q0,38.29-21.53,52.9t-64.62,14.64h-90.41V507q0,8,11.17,8v9.58h-75.51v-9.58q13.3,0,13.29-8V308.06Z"/><path class="cls-9" d="M3439.44,507c0,2.83.82,4.87,2.41,6.12a8.78,8.78,0,0,0,5.59,1.86v9.58h-67v-9.58a8.86,8.86,0,0,0,5.59-1.86q2.39-1.86,2.39-6.12V308.06q0-4.25-2.39-6.12a8.86,8.86,0,0,0-5.59-1.86v-9.56h67v9.56a8.78,8.78,0,0,0-5.59,1.86c-1.59,1.24-2.41,3.28-2.41,6.12v75H3582v-75c0-2.83-.82-4.87-2.41-6.12a8.78,8.78,0,0,0-5.59-1.86v-9.56h67v9.56a8.86,8.86,0,0,0-5.59,1.86q-2.38,1.86-2.39,6.12V507q0,4.25,2.39,6.12a8.87,8.87,0,0,0,5.59,1.86v9.58h-67v-9.58a8.78,8.78,0,0,0,5.59-1.86c1.59-1.24,2.41-3.28,2.41-6.12v-80.3H3439.44V507Z"/><path class="cls-10" d="M496,598c-8.49-4-17.23-5.82-24.44-5.39L428,529.92A33.08,33.08,0,0,0,444.4,504.7c1.29-10.9-1.74-23.05-7.58-34.24l31-12.22c4.83,4.57,10.5,9.55,16.43,12.35,18.66,8.8,35.48,2.92,37.38-13.06s-11.8-36.24-30.45-45-35.48-2.92-37.38,13.06c-.69,5.81.48,11,3.37,16.92l-31,12.22a92.36,92.36,0,0,0-35.08-28.8c-14.4-6.81-28.49-8.84-40.47-6l-31.25-43.2a21.6,21.6,0,0,0,6-12.52c1.9-16-11.8-36.24-30.45-45s-35.48-2.92-37.38,13,11.8,36.24,30.47,45q10.17,4.79,18.31,4l32.86,44.73c-7.74,4.78-12.25,12.62-13.45,22.79-1.56,13.07,3,27.49,11.28,40.59l-19.7,7.58a73,73,0,0,0-22.21-16.6c-23.74-11.19-44.3-4-46.71,16.31s14.32,45.1,38.06,56.3,44.3,4,46.72-16.33c.86-7.26-.81-15.71-5.22-23.92l19.8-8.31a101,101,0,0,0,30.42,22.78c12.71,6,25,8,35,6.54l44.43,63.12a30.52,30.52,0,0,0-8.36,17.53c-2.41,20.33,14.34,45.1,38.08,56.29s44.3,4,46.71-16.31S519.71,609.21,496,598Zm-6.92,58.08c-14.4-6.79-24.31-21.43-22.84-33.77s13.62-16.58,28-9.79,24.33,21.43,22.84,33.77S503.47,662.9,489.05,656.1ZM288.17,538.38c-14.42-6.79-24.31-21.43-22.84-33.77s13.61-16.58,28-9.79a39.73,39.73,0,0,1,10.75,7.37l10.75,15a25.07,25.07,0,0,1,1.34,11.37C314.73,540.95,302.58,545.19,288.17,538.38ZM380.72,513c-23.74-11.19-40.49-36-38.06-56.29s23-27.5,46.71-16.31,40.49,36,38.08,56.29S404.48,524.21,380.72,513ZM489.55,426.3c9.33,4.4,16.18,14.53,15.23,22.52s-9.36,10.92-18.7,6.52-16.18-14.53-15.22-22.52S480.22,421.9,489.55,426.3ZM274.47,340.14c1-8,9.36-10.92,18.7-6.52s16.18,14.53,15.22,22.52-9.35,10.92-18.68,6.52S273.52,348.13,274.47,340.14Z"/></svg>