<?xml version="1.0" encoding="utf-8"?>
<!-- Generator: Adobe Illustrator 21.0.0, SVG Export Plug-In . SVG Version: 6.00 Build 0)  -->
<svg version="1.1" id="图层_1" xmlns="http://www.w3.org/2000/svg" xmlns:xlink="http://www.w3.org/1999/xlink" x="0px" y="0px"
	 viewBox="0 0 1280 1280" style="enable-background:new 0 0 1280 1280;" xml:space="preserve">
<style type="text/css">
	.st0{fill:#C2EAFC;}
	.st1{fill:#D8F1FD;}
	.st2{fill:#EDF9FE;}
	.st3{fill:none;stroke:#354052;stroke-width:5;}
	.st4{fill:#354052;}
	.st5{fill:#00AAFF;}
	.st6{fill:#FFFFFF;}
	.st7{fill:none;stroke:#354052;stroke-width:11;}
	.st8{fill:#BFC7D2;}
	.st9{fill:#E2DAFB;}
	.st10{fill:#8360E7;}
	.st11{fill:#AAFAC8;}
	.st12{fill:#66CC99;}
	.st13{fill:none;stroke:#354052;stroke-width:20;}
	.st14{fill:none;stroke:#354052;stroke-width:3;}
	.st15{opacity:0.2;fill:#8360E7;}
	.st16{opacity:0.8;fill:#8360E7;}
	.st17{opacity:0.44;fill:#8360E7;}
	.st18{fill:none;stroke:#354052;stroke-width:8;}
	.st19{opacity:0.2;fill:#00AAFF;}
	.st20{opacity:0.4;fill:#00AAFF;}
	.st21{opacity:0.8;fill:#00AAFF;}
	.st22{opacity:0.8;fill:#00B5FF;}
	.st23{fill:#0ABDFF;}
	.st24{fill:#0086FF;}
	.st25{fill:none;stroke:#00AAFF;}
	.st26{fill:none;stroke:#000000;}
	.st27{fill:none;stroke:#354052;stroke-width:10;}
	.st28{display:none;fill:#354052;}
	.st29{fill:#00AAFF;stroke:#FFFFFF;stroke-width:3;stroke-miterlimit:10;}
	.st30{font-family:'ArialRoundedMTBold';}
	.st31{font-size:166.8818px;}
	.st32{opacity:0.7;fill:#FFFFFF;}
	.st33{fill:#66CC99;stroke:#FFFFFF;stroke-width:7;stroke-miterlimit:10;}
</style>
<path class="st0" d="M394.6,1011.1c-126.7-83.2-210.4-226.4-210.4-389.2c0-257,208.3-465.3,465.3-465.3
	c257,0,465.3,208.3,465.3,465.3c0,162.8-83.7,306-210.4,389.2H394.6z"/>
<path class="st1" d="M649.6,317.3c163.5,0,296.1,132.6,296.1,296.1S813.1,909.6,649.6,909.6S353.4,777,353.4,613.4
	S486,317.3,649.6,317.3"/>
<g>
	<g>
		<path class="st6" d="M894.1,895H408.7c-24.2,0-43.9-19.6-43.9-43.9V554.9c0-24.2,19.6-43.9,43.9-43.9h485.4
			c24.2,0,43.9,19.6,43.9,43.9v296.2C937.9,875.3,918.3,895,894.1,895z"/>
		<path class="st2" d="M891.6,895H413.3c-24.1,0-43.6-19.5-43.6-43.6V554.8c0-24.1,19.5-43.6,43.6-43.6h478.4
			c24.1,0,43.6,19.5,43.6,43.6v296.7C935.2,875.5,915.7,895,891.6,895z"/>
		<path class="st27" d="M895.4,893.6H410c-24.2,0-43.9-19.6-43.9-43.9V553.6c0-24.2,19.6-43.9,43.9-43.9h485.4
			c24.2,0,43.9,19.6,43.9,43.9v296.2C939.3,874,919.7,893.6,895.4,893.6z"/>
		<rect x="366.1" y="842" class="st28" width="570.7" height="11.5"/>
		<path class="st6" d="M372.6,714.8c0.3-1.8,0.4-3.6,0.4-5.5v-65.6v10.9c0,9-3.1,16.4-6.9,16.4c-3.8,0-6.9-7.3-6.9-16.4v-10.9v65.6
			c0,1.9,0.1,3.7,0.4,5.4c-1.3-8.5,0.6-17.9,4.2-20.9s7.5,1.5,8.7,10C373.1,707.5,373.1,711.3,372.6,714.8L372.6,714.8z"/>
		<rect x="622.6" y="897.7" class="st4" width="52.1" height="74"/>
		<path class="st4" d="M761.7,982.4c0,16.7-51,13.7-113.8,13.7s-113.8,2.9-113.8-13.7c0-16.7,51-30.2,113.8-30.2
			S761.7,965.7,761.7,982.4z"/>
	</g>
	<path class="st8" d="M896.7,538.6h15.8c2.2,0,4,1.7,4,3.8l0,0c0,2.1-1.8,3.8-4,3.8h-15.8c-2.2,0-4-1.7-4-3.8l0,0
		C892.8,540.3,894.5,538.6,896.7,538.6z"/>
	<path class="st4" d="M383.9,553.9h11.9c3.3,0,5.9,2.6,5.9,5.7l0,0c0,3.2-2.7,5.7-5.9,5.7h-11.9c-3.3,0-5.9-2.6-5.9-5.7l0,0
		C378,556.4,380.6,553.9,383.9,553.9z"/>
	<path class="st4" d="M416.3,553.9h499.1c5.9,0,10.7,2.6,10.7,5.7l0,0c0,3.2-4.8,5.7-10.7,5.7H416.3c-5.9,0-10.7-2.6-10.7-5.7l0,0
		C405.7,556.4,410.4,553.9,416.3,553.9z"/>
	<path class="st4" d="M815.5,574.3h106.7V861H815.5V574.3z"/>
	<path class="st8" d="M389.8,538.6h7.9v7.6h-7.9V538.6z M401.7,538.6h7.9v7.6h-7.9V538.6z M413.6,538.6h7.9v7.6h-7.9V538.6z"/>
	<path class="st8" d="M393.8,584.3h75.1c2.2,0,4,1.7,4,3.8v3.8c0,2.1-1.8,3.8-4,3.8h-75.1c-2.2,0-4-1.7-4-3.8v-3.8
		C389.8,586,391.6,584.3,393.8,584.3z"/>
	<path class="st8" d="M425.4,607.1h67.2c2.2,0,4,1.7,4,3.8v3.8c0,2.1-1.8,3.8-4,3.8h-67.2c-2.2,0-4-1.7-4-3.8v-3.8
		C421.5,608.8,423.2,607.1,425.4,607.1z"/>
	<path class="st8" d="M393.8,607.1h15.8c2.2,0,4,1.7,4,3.8v3.8c0,2.1-1.8,3.8-4,3.8h-15.8c-2.2,0-4-1.7-4-3.8v-3.8
		C389.8,608.8,391.6,607.1,393.8,607.1z"/>
	<path class="st5" d="M393.8,630h47.4c2.2,0,4,1.7,4,3.8v3.8c0,2.1-1.8,3.8-4,3.8h-47.4c-2.2,0-4-1.7-4-3.8v-3.8
		C389.8,631.7,391.6,630,393.8,630z"/>
	<path class="st5" d="M457,630h19.8c2.2,0,4,1.7,4,3.8v3.8c0,2.1-1.8,3.8-4,3.8H457c-2.2,0-4-1.7-4-3.8v-3.8
		C453.1,631.7,454.9,630,457,630z"/>
	<path class="st5" d="M492.6,630h11.9c2.2,0,4,1.7,4,3.8v3.8c0,2.1-1.8,3.8-4,3.8h-11.9c-2.2,0-4-1.7-4-3.8v-3.8
		C488.7,631.7,490.4,630,492.6,630z"/>
	<path class="st5" d="M393.8,675.6h51.4c2.2,0,4,1.7,4,3.8v3.8c0,2.1-1.8,3.8-4,3.8h-51.4c-2.2,0-4-1.7-4-3.8v-3.8
		C389.8,677.3,391.6,675.6,393.8,675.6z"/>
	<path class="st5" d="M425.4,744.1h87c2.2,0,4,1.7,4,3.8v3.8c0,2.1-1.8,3.8-4,3.8h-87c-2.2,0-4-1.7-4-3.8v-3.8
		C421.5,745.8,423.2,744.1,425.4,744.1z"/>
	<path class="st5" d="M461,675.6h31.6c2.2,0,4,1.7,4,3.8v3.8c0,2.1-1.8,3.8-4,3.8H461c-2.2,0-4-1.7-4-3.8v-3.8
		C457,677.3,458.8,675.6,461,675.6z"/>
	<path class="st5" d="M508.4,675.6h51.4c2.2,0,4,1.7,4,3.8v3.8c0,2.1-1.8,3.8-4,3.8h-51.4c-2.2,0-4-1.7-4-3.8v-3.8
		C504.5,677.3,506.2,675.6,508.4,675.6z"/>
	<path class="st8" d="M508.4,607.1H548c2.2,0,4,1.7,4,3.8v3.8c0,2.1-1.8,3.8-4,3.8h-39.5c-2.2,0-4-1.7-4-3.8v-3.8
		C504.5,608.8,506.2,607.1,508.4,607.1z"/>
	<path class="st8" d="M461,766.9h31.6c2.2,0,4,1.7,4,3.8v3.8c0,2.1-1.8,3.8-4,3.8H461c-2.2,0-4-1.7-4-3.8v-3.8
		C457,768.6,458.8,766.9,461,766.9z"/>
	<path class="st8" d="M393.8,766.9h51.4c2.2,0,4,1.7,4,3.8v3.8c0,2.1-1.8,3.8-4,3.8h-51.4c-2.2,0-4-1.7-4-3.8v-3.8
		C389.8,768.6,391.6,766.9,393.8,766.9z"/>
	<path class="st8" d="M393.8,812.6h51.4c2.2,0,4,1.7,4,3.8v3.8c0,2.1-1.8,3.8-4,3.8h-51.4c-2.2,0-4-1.7-4-3.8v-3.8
		C389.8,814.3,391.6,812.6,393.8,812.6z"/>
	<path class="st8" d="M393.8,789.8h15.8c2.2,0,4,1.7,4,3.8v3.8c0,2.1-1.8,3.8-4,3.8h-15.8c-2.2,0-4-1.7-4-3.8v-3.8
		C389.8,791.5,391.6,789.8,393.8,789.8z"/>
	<path class="st8" d="M425.4,789.8h27.7c2.2,0,4,1.7,4,3.8v3.8c0,2.1-1.8,3.8-4,3.8h-27.7c-2.2,0-4-1.7-4-3.8v-3.8
		C421.5,791.5,423.2,789.8,425.4,789.8z"/>
	<path class="st8" d="M508.4,766.9h51.4c2.2,0,4,1.7,4,3.8v3.8c0,2.1-1.8,3.8-4,3.8h-51.4c-2.2,0-4-1.7-4-3.8v-3.8
		C504.5,768.6,506.2,766.9,508.4,766.9z"/>
	<path class="st8" d="M425.4,652.8h47.4c2.2,0,4,1.7,4,3.8v3.8c0,2.1-1.8,3.8-4,3.8h-47.4c-2.2,0-4-1.7-4-3.8v-3.8
		C421.5,654.5,423.2,652.8,425.4,652.8z"/>
	<path class="st8" d="M393.8,652.8h15.8c2.2,0,4,1.7,4,3.8v3.8c0,2.1-1.8,3.8-4,3.8h-15.8c-2.2,0-4-1.7-4-3.8v-3.8
		C389.8,654.5,391.6,652.8,393.8,652.8z"/>
	<path class="st8" d="M393.8,721.3h51.4c2.2,0,4,1.7,4,3.8v3.8c0,2.1-1.8,3.8-4,3.8h-51.4c-2.2,0-4-1.7-4-3.8v-3.8
		C389.8,723,391.6,721.3,393.8,721.3z"/>
	<path class="st8" d="M393.8,698.5h15.8c2.2,0,4,1.7,4,3.8v3.8c0,2.1-1.8,3.8-4,3.8h-15.8c-2.2,0-4-1.7-4-3.8v-3.8
		C389.8,700.2,391.6,698.5,393.8,698.5z"/>
	<path class="st8" d="M425.4,698.5h27.7c2.2,0,4,1.7,4,3.8v3.8c0,2.1-1.8,3.8-4,3.8h-27.7c-2.2,0-4-1.7-4-3.8v-3.8
		C421.5,700.2,423.2,698.5,425.4,698.5z"/>
	<path class="st8" d="M393.8,744.1h15.8c2.2,0,4,1.7,4,3.8v3.8c0,2.1-1.8,3.8-4,3.8h-15.8c-2.2,0-4-1.7-4-3.8v-3.8
		C389.8,745.8,391.6,744.1,393.8,744.1z"/>
	<path class="st6" d="M841.2,593.3h31.6c3.3,0,5.9,2.6,5.9,5.7l0,0c0,3.2-2.7,5.7-5.9,5.7h-31.6c-3.3,0-5.9-2.6-5.9-5.7l0,0
		C835.2,595.8,837.9,593.3,841.2,593.3z"/>
	<path class="st6" d="M841.2,639h47.4c3.3,0,5.9,2.6,5.9,5.7l0,0c0,3.2-2.7,5.7-5.9,5.7h-47.4c-3.3,0-5.9-2.6-5.9-5.7l0,0
		C835.2,641.5,837.9,639,841.2,639z"/>
	<path class="st6" d="M841.2,684.6h31.6c3.3,0,5.9,2.6,5.9,5.7l0,0c0,3.2-2.7,5.7-5.9,5.7h-31.6c-3.3,0-5.9-2.6-5.9-5.7l0,0
		C835.2,687.2,837.9,684.6,841.2,684.6z"/>
	<path class="st5" d="M860.9,832h27.7c3.3,0,5.9,2.6,5.9,5.7l0,0c0,3.2-2.7,5.7-5.9,5.7h-27.7c-3.3,0-5.9-2.6-5.9-5.7l0,0
		C855,834.5,857.7,832,860.9,832z"/>
	<path class="st6" d="M841.2,832L841.2,832c3.3,0,5.9,2.6,5.9,5.7l0,0c0,3.2-2.7,5.7-5.9,5.7l0,0c-3.3,0-5.9-2.6-5.9-5.7l0,0
		C835.2,834.5,837.9,832,841.2,832z"/>
	<path class="st6" d="M841.2,616.1H853c3.3,0,5.9,2.6,5.9,5.7l0,0c0,3.2-2.7,5.7-5.9,5.7h-11.9c-3.3,0-5.9-2.6-5.9-5.7l0,0
		C835.2,618.7,837.9,616.1,841.2,616.1z"/>
	<path class="st6" d="M841.2,661.8H853c3.3,0,5.9,2.6,5.9,5.7l0,0c0,3.2-2.7,5.7-5.9,5.7h-11.9c-3.3,0-5.9-2.6-5.9-5.7l0,0
		C835.2,664.3,837.9,661.8,841.2,661.8z"/>
	<path class="st6" d="M872.8,661.8h4c3.3,0,5.9,2.6,5.9,5.7l0,0c0,3.2-2.7,5.7-5.9,5.7h-4c-3.3,0-5.9-2.6-5.9-5.7l0,0
		C866.9,664.3,869.5,661.8,872.8,661.8z"/>
	<path class="st6" d="M872.8,616.1h23.7c3.3,0,5.9,2.6,5.9,5.7l0,0c0,3.2-2.7,5.7-5.9,5.7h-23.7c-3.3,0-5.9-2.6-5.9-5.7l0,0
		C866.9,618.7,869.5,616.1,872.8,616.1z"/>
</g>
<path class="st4" d="M1026.1,994.2H230.8c-7,0-12.7,5.7-12.7,12.7c0,7,5.7,12.7,12.7,12.7h795.3c7,0,12.7-5.7,12.7-12.7
	C1038.8,999.8,1033.1,994.2,1026.1,994.2 M1068.4,994.2c-7,0-12.7,5.7-12.7,12.7c0,7,5.7,12.7,12.7,12.7l0,0c7,0,12.7-5.7,12.7-12.7
	S1075.4,994.2,1068.4,994.2"/>
<path class="st5" d="M814.5,1053.4H357.7c-7,0-12.7,5.7-12.7,12.7c0,7,5.7,12.7,12.7,12.7h456.9c7,0,12.7-5.7,12.7-12.7
	C827.2,1059.1,821.6,1053.4,814.5,1053.4 M916.1,1053.4h-59.2c-7,0-12.7,5.7-12.7,12.7c0,7,5.7,12.7,12.7,12.7h59.2
	c7,0,12.7-5.7,12.7-12.7C928.8,1059.1,923.1,1053.4,916.1,1053.4 M729.9,1112.6H442.3c-7,0-12.7,5.7-12.7,12.7
	c0,7,5.7,12.7,12.7,12.7h287.7c7,0,12.7-5.7,12.7-12.7C742.6,1118.3,736.9,1112.6,729.9,1112.6 M797.6,1112.6h-25.4
	c-7,0-12.7,5.7-12.7,12.7c0,7,5.7,12.7,12.7,12.7h25.4c7,0,12.7-5.7,12.7-12.7C810.3,1118.3,804.6,1112.6,797.6,1112.6"/>
<path class="st8" d="M1237.6,782.6c-7,0-12.7,5.7-12.7,12.7c0,7,5.7,12.7,12.7,12.7c7,0,12.7-5.7,12.7-12.7
	C1250.3,788.3,1244.6,782.6,1237.6,782.6"/>
<path class="st8" d="M1174.1,291.9h-8.5v-8.5c0-4.7-3.8-8.5-8.5-8.5s-8.5,3.8-8.5,8.5v8.5h-8.5c-4.7,0-8.5,3.8-8.5,8.5
	s3.8,8.5,8.5,8.5h8.5v8.5c0,4.7,3.8,8.5,8.5,8.5s8.5-3.8,8.5-8.5v-8.5h8.5c4.7,0,8.5-3.8,8.5-8.5S1178.8,291.9,1174.1,291.9"/>
<path class="st8" d="M82.7,731.9h-8.5v-8.5c0-4.7-3.8-8.5-8.5-8.5s-8.5,3.8-8.5,8.5v8.5h-8.5c-4.7,0-8.5,3.8-8.5,8.5
	s3.8,8.5,8.5,8.5h8.5v8.5c0,4.7,3.8,8.5,8.5,8.5s8.5-3.8,8.5-8.5v-8.5h8.5c4.7,0,8.5-3.8,8.5-8.5S87.4,731.9,82.7,731.9"/>
<g>
	<g>
		
			<image style="overflow:visible;opacity:0.75;" width="330" height="214" xlink:href="799BC430.png"  transform="matrix(1 0 0 1 72 299)">
		</image>
		<g>
			<text transform="matrix(1 0 0 1 81.5293 453.4688)" class="st29 st30 st31">Ont</text>
		</g>
	</g>
	<g>
		
			<image style="overflow:visible;opacity:0.75;" width="725" height="578" xlink:href="799BC433.png"  transform="matrix(1 0 0 1 291 293)">
		</image>
		<g>
			<g>
				<path class="st25" d="M625.4,700.9c-178.4-14-285.7-57.5-285.7-57.5C307.2,673.8,513.2,402.9,524,332.3
					c5.1-33.4,34.9,96.2,68.2,99.3c23.6,2.2,58.6-44.8,49.1-32.3c-15.6,20.3-25.7,295.9-6.9,301.6c23.6,7.1,202-397.7,186.4-371.1
					C804.1,358.6,941.7,462.1,941.7,525c0,51.5-282.5,118.4-316.3,177.5c-37.5,65.5,324.3,99,300.7,132.5"/>
				<g>
					<path class="st5" d="M682.2,746.7H573.7v-0.5c-19.7-3.3-33-21.9-29.7-41.6c3.3-19.7,21.9-33,41.6-29.7c1.9,0.3,3.8,0.8,5.6,1.4
						c8.3-16,24.8-26,42.8-26c26.6,0,48.2,21.6,48.2,48.2c13.3,0,24.1,10.8,24.1,24.1C706.4,735.9,695.6,746.7,682.2,746.7z"/>
					<path class="st5" d="M978,551.3h-72.1v-0.4c-13.1-2.2-21.9-14.6-19.7-27.7c2.2-13.1,14.6-21.9,27.7-19.7
						c1.3,0.2,2.5,0.5,3.7,0.9c5.5-10.6,16.5-17.3,28.4-17.3c17.7,0,32.1,14.4,32.1,32.1c8.9,0,16,7.2,16,16S986.8,551.3,978,551.3z
						"/>
					<path class="st5" d="M545.4,345.4h-41.7v-0.2c-7.6-1.3-12.7-8.4-11.4-16c1.3-7.6,8.4-12.7,16-11.4c0.7,0.1,1.4,0.3,2.1,0.5
						c3.2-6.1,9.5-10,16.4-10c10.2,0,18.5,8.3,18.5,18.5c5.1,0,9.3,4.1,9.3,9.3S550.5,345.4,545.4,345.4z"/>
					<path class="st5" d="M366.9,668.6h-52.3v-0.3c-9.5-1.6-15.9-10.6-14.3-20.1c1.6-9.5,10.6-15.9,20.1-14.3
						c0.9,0.2,1.8,0.4,2.7,0.7c4-7.7,11.9-12.5,20.6-12.5c12.8,0,23.3,10.4,23.3,23.3c6.4,0,11.6,5.2,11.6,11.6
						C378.5,663.4,373.3,668.6,366.9,668.6z"/>
					<path class="st5" d="M946.2,848.1h-52.3v-0.3c-9.5-1.6-15.9-10.6-14.3-20.1c1.6-9.5,10.6-15.9,20.1-14.3
						c0.9,0.2,1.8,0.4,2.7,0.7c4-7.7,11.9-12.5,20.6-12.5c12.8,0,23.3,10.4,23.3,23.3c6.4,0,11.6,5.2,11.6,11.6
						S952.6,848.1,946.2,848.1z"/>
					<path class="st5" d="M848.1,350.2h-62v-0.3c-11.2-1.7-18.8-11.1-17-21.2c1.9-10,12.5-16.8,23.8-15.1c1.1,0.2,2.1,0.4,3.2,0.7
						c4.7-8.1,14.2-13.2,24.4-13.2c15.2,0,27.5,11,27.5,24.5c7.6,0,13.8,5.5,13.8,12.3C861.9,344.7,855.7,350.2,848.1,350.2z"/>
					<path class="st5" d="M662.7,414.8H621v-0.2c-7.6-1.3-12.7-8.4-11.4-16c1.3-7.6,8.4-12.7,16-11.4c0.7,0.1,1.4,0.3,2.1,0.5
						c3.2-6.1,9.5-10,16.4-10c10.2,0,18.5,8.3,18.5,18.5c5.1,0,9.3,4.1,9.3,9.3S667.8,414.8,662.7,414.8z"/>
					<path class="st5" d="M603,442.6h-28v-0.1c-5.1-0.9-8.5-5.7-7.7-10.8c0.9-5.1,5.7-8.5,10.8-7.7c0.5,0.1,1,0.2,1.4,0.4
						c2.1-4.1,6.4-6.7,11.1-6.7c6.9,0,12.5,5.6,12.5,12.5c3.4,0,6.2,2.8,6.2,6.2C609.2,439.8,606.4,442.6,603,442.6z"/>
				</g>
			</g>
		</g>
	</g>
</g>
</svg>
