<?xml version="1.0" encoding="utf-8"?>
<!-- Generator: Adobe Illustrator 21.0.0, SVG Export Plug-In . SVG Version: 6.00 Build 0)  -->
<svg version="1.1" id="图层_1" xmlns="http://www.w3.org/2000/svg" xmlns:xlink="http://www.w3.org/1999/xlink" x="0px" y="0px"
	 viewBox="0 0 1280 1280" style="enable-background:new 0 0 1280 1280;" xml:space="preserve">
<style type="text/css">
	.st0{fill:#C2EAFC;}
	.st1{fill:#D8F1FD;}
	.st2{fill:#EDF9FE;}
	.st3{fill:none;stroke:#354052;stroke-width:5;}
	.st4{fill:#354052;}
	.st5{fill:#00AAFF;}
	.st6{fill:#FFFFFF;}
	.st7{fill:none;stroke:#354052;stroke-width:11;}
	.st8{fill:#BFC7D2;}
	.st9{fill:#E2DAFB;}
	.st10{fill:#8360E7;}
	.st11{fill:#AAFAC8;}
	.st12{fill:#66CC99;}
	.st13{fill:none;stroke:#354052;stroke-width:20;}
	.st14{fill:none;stroke:#354052;stroke-width:3;}
	.st15{opacity:0.2;fill:#8360E7;}
	.st16{opacity:0.8;fill:#8360E7;}
	.st17{opacity:0.44;fill:#8360E7;}
	.st18{fill:none;stroke:#354052;stroke-width:8;}
	.st19{opacity:0.2;fill:#00AAFF;}
	.st20{opacity:0.4;fill:#00AAFF;}
	.st21{opacity:0.8;fill:#00AAFF;}
	.st22{opacity:0.8;fill:#00B5FF;}
	.st23{fill:#0ABDFF;}
	.st24{fill:#0086FF;}
	.st25{fill:none;stroke:#00AAFF;}
	.st26{fill:none;stroke:#000000;}
	.st27{fill:none;stroke:#354052;stroke-width:10;}
	.st28{display:none;fill:#354052;}
	.st29{fill:#66CC99;stroke:#FFFFFF;stroke-width:4;stroke-miterlimit:10;}
	.st30{font-family:'ArialRoundedMTBold';}
	.st31{font-size:168.8839px;}
	.st32{opacity:0.7;fill:#FFFFFF;}
	.st33{fill:#66CC99;stroke:#FFFFFF;stroke-width:7;stroke-miterlimit:10;}
</style>
<path class="st11" d="M431.3,993.4c-130-82.2-215.9-223.7-215.9-384.6c0-254,213.9-459.8,477.7-459.8
	c263.8,0,477.7,205.9,477.7,459.8c0,160.9-85.9,302.4-216,384.6H431.3z"/>
<path class="st4" d="M1079.6,976.7H263.2c-7.2,0-13,5.6-13,12.5c0,6.9,5.8,12.5,13,12.5h816.5c7.2,0,13-5.6,13-12.5
	C1092.7,982.3,1086.8,976.7,1079.6,976.7 M1123.1,976.7c-7.2,0-13,5.6-13,12.5c0,6.9,5.8,12.5,13,12.5l0,0c7.2,0,13-5.6,13-12.5
	C1136.1,982.3,1130.3,976.7,1123.1,976.7"/>
<path class="st12" d="M862.5,1035.2h-469c-7.2,0-13,5.6-13,12.5c0,6.9,5.8,12.5,13,12.5h469c7.2,0,13-5.6,13-12.5
	C875.5,1040.8,869.7,1035.2,862.5,1035.2 M966.7,1035.2h-60.8c-7.2,0-13,5.6-13,12.5c0,6.9,5.8,12.5,13,12.5h60.8
	c7.2,0,13-5.6,13-12.5C979.7,1040.8,973.9,1035.2,966.7,1035.2 M775.6,1093.8H480.3c-7.2,0-13,5.6-13,12.5c0,6.9,5.8,12.5,13,12.5
	h295.3c7.2,0,13-5.6,13-12.5C788.7,1099.4,782.8,1093.8,775.6,1093.8 M845.1,1093.8h-26.1c-7.2,0-13,5.6-13,12.5
	c0,6.9,5.8,12.5,13,12.5h26.1c7.2,0,13-5.6,13-12.5C858.1,1099.4,852.3,1093.8,845.1,1093.8"/>
<path class="st6" d="M342.4,546.2c0.4-1.3,0.6-2.8,0.6-4.2v-50.2v8.4c0,6.9-4.5,12.5-10,12.5s-10-5.6-10-12.5v-8.4V542
	c0,1.5,0.2,2.9,0.6,4.2c-1.8-6.5,0.9-13.7,6.1-16c5.2-2.3,10.9,1.1,12.7,7.7C343.2,540.5,343.2,543.5,342.4,546.2L342.4,546.2z"/>
<g>
	<g>
		<path id="a" class="st6" d="M399.2,364.4c0-33.6,28.3-60.8,63.2-60.9c0,0,0.1,0,0.1,0h463.3c34.9,0,63.3,27.3,63.3,60.9v608.2
			H399.2V364.4z"/>
	</g>
	<path class="st13" d="M980.7,963.9H401.4V354.7c0-28.5,24-51.6,53.6-51.7c0,0,0.1,0,0.1,0H927c29.7,0,53.7,23.1,53.7,51.7
		L980.7,963.9z"/>
	<path class="st8" d="M912.8,327.9h28.6c3.9,0,7.2,3.1,7.2,6.9l0,0c0,3.8-3.2,6.9-7.2,6.9h-28.6c-4,0-7.2-3.1-7.2-6.9l0,0
		C905.6,331,908.8,327.9,912.8,327.9z"/>
	<path class="st4" d="M430,355.5h21.5c5.9,0,10.7,4.6,10.7,10.3l0,0c0,5.7-4.8,10.3-10.7,10.3H430c-5.9,0-10.7-4.6-10.7-10.3l0,0
		C419.3,360.1,424.1,355.5,430,355.5z"/>
	<path class="st4" d="M477.6,355.5h500.6c5.9,0,10.7,4.6,10.7,10.3l0,0c0,5.7-4.8,10.3-10.7,10.3H477.6c-5.9,0-10.7-4.6-10.7-10.3
		l0,0C466.9,360.1,471.7,355.5,477.6,355.5z"/>
	<path class="st4" d="M795.1,376.1h193.1v578.3H795.1V376.1z"/>
	<path class="st8" d="M440.8,327.9h14.3v13.8h-14.3V327.9z M462.2,327.9h14.3v13.8h-14.3V327.9z M483.7,327.9H498v13.8h-14.3V327.9z
		"/>
	<path class="st8" d="M447.9,410.6h135.9c3.9,0,7.2,3.1,7.2,6.9v6.9c0,3.8-3.2,6.9-7.2,6.9H447.9c-3.9,0-7.2-3.1-7.2-6.9v-6.9
		C440.8,413.6,444,410.6,447.9,410.6z"/>
	<path class="st8" d="M505.1,451.9h121.6c4,0,7.2,3.1,7.2,6.9v6.9c0,3.8-3.2,6.9-7.2,6.9H505.1c-3.9,0-7.2-3.1-7.2-6.9v-6.9
		C498,454.9,501.2,451.9,505.1,451.9z"/>
	<path class="st8" d="M447.9,451.9h28.6c3.9,0,7.2,3.1,7.2,6.9v6.9c0,3.8-3.2,6.9-7.2,6.9h-28.6c-3.9,0-7.2-3.1-7.2-6.9v-6.9
		C440.8,454.9,444,451.9,447.9,451.9z"/>
	<path class="st12" d="M447.9,493.2h85.8c3.9,0,7.2,3.1,7.2,6.9v6.9c0,3.8-3.2,6.9-7.2,6.9h-85.8c-3.9,0-7.2-3.1-7.2-6.9V500
		C440.8,496.2,444,493.2,447.9,493.2z"/>
	<path class="st12" d="M562.3,493.2h35.8c4,0,7.2,3.1,7.2,6.9v6.9c0,3.8-3.2,6.9-7.2,6.9h-35.8c-4,0-7.2-3.1-7.2-6.9V500
		C555.2,496.2,558.4,493.2,562.3,493.2z"/>
	<path class="st12" d="M626.7,493.2h21.5c3.9,0,7.2,3.1,7.2,6.9v6.9c0,3.8-3.2,6.9-7.2,6.9h-21.5c-4,0-7.2-3.1-7.2-6.9V500
		C619.6,496.2,622.8,493.2,626.7,493.2z"/>
	<path class="st12" d="M447.9,575.8h93c4,0,7.2,3.1,7.2,6.9v6.9c0,3.8-3.2,6.9-7.2,6.9h-93c-3.9,0-7.2-3.1-7.2-6.9v-6.9
		C440.8,578.9,444,575.8,447.9,575.8z"/>
	<path class="st12" d="M505.1,699.7h157.3c4,0,7.2,3.1,7.2,6.9v6.9c0,3.8-3.2,6.9-7.2,6.9H505.1c-3.9,0-7.2-3.1-7.2-6.9v-6.9
		C498,702.8,501.2,699.7,505.1,699.7z"/>
	<path class="st12" d="M569.5,575.8h57.2c4,0,7.2,3.1,7.2,6.9v6.9c0,3.8-3.2,6.9-7.2,6.9h-57.2c-4,0-7.2-3.1-7.2-6.9v-6.9
		C562.3,578.9,565.5,575.8,569.5,575.8z"/>
	<path class="st12" d="M655.3,575.8h93c3.9,0,7.2,3.1,7.2,6.9v6.9c0,3.8-3.2,6.9-7.2,6.9h-93c-3.9,0-7.2-3.1-7.2-6.9v-6.9
		C648.2,578.9,651.4,575.8,655.3,575.8z"/>
	<path class="st8" d="M655.3,451.9h71.5c4,0,7.2,3.1,7.2,6.9v6.9c0,3.8-3.2,6.9-7.2,6.9h-71.5c-3.9,0-7.2-3.1-7.2-6.9v-6.9
		C648.2,454.9,651.4,451.9,655.3,451.9z"/>
	<path class="st8" d="M569.5,741h57.2c4,0,7.2,3.1,7.2,6.9v6.9c0,3.8-3.2,6.9-7.2,6.9h-57.2c-4,0-7.2-3.1-7.2-6.9v-6.9
		C562.3,744.1,565.5,741,569.5,741z"/>
	<path class="st8" d="M447.9,741h93c4,0,7.2,3.1,7.2,6.9v6.9c0,3.8-3.2,6.9-7.2,6.9h-93c-3.9,0-7.2-3.1-7.2-6.9v-6.9
		C440.8,744.1,444,741,447.9,741z"/>
	<path class="st8" d="M447.9,823.6h93c4,0,7.2,3.1,7.2,6.9v6.9c0,3.8-3.2,6.9-7.2,6.9h-93c-3.9,0-7.2-3.1-7.2-6.9v-6.9
		C440.8,826.7,444,823.6,447.9,823.6z"/>
	<path class="st8" d="M447.9,864.9h28.6c3.9,0,7.2,3.1,7.2,6.9v6.9c0,3.8-3.2,6.9-7.2,6.9h-28.6c-3.9,0-7.2-3.1-7.2-6.9v-6.9
		C440.8,868,444,864.9,447.9,864.9z"/>
	<path class="st8" d="M447.9,782.3h28.6c3.9,0,7.2,3.1,7.2,6.9v6.9c0,3.8-3.2,6.9-7.2,6.9h-28.6c-3.9,0-7.2-3.1-7.2-6.9v-6.9
		C440.8,785.4,444,782.3,447.9,782.3z"/>
	<path class="st8" d="M505.1,782.3h50.1c4,0,7.2,3.1,7.2,6.9v6.9c0,3.8-3.2,6.9-7.2,6.9h-50.1c-3.9,0-7.2-3.1-7.2-6.9v-6.9
		C498,785.4,501.2,782.3,505.1,782.3z"/>
	<path class="st8" d="M655.3,741h93c3.9,0,7.2,3.1,7.2,6.9v6.9c0,3.8-3.2,6.9-7.2,6.9h-93c-3.9,0-7.2-3.1-7.2-6.9v-6.9
		C648.2,744.1,651.4,741,655.3,741z"/>
	<path class="st8" d="M505.1,534.5H591c3.9,0,7.2,3.1,7.2,6.9v6.9c0,3.8-3.2,6.9-7.2,6.9h-85.8c-3.9,0-7.2-3.1-7.2-6.9v-6.9
		C498,537.6,501.2,534.5,505.1,534.5z"/>
	<path class="st8" d="M447.9,534.5h28.6c3.9,0,7.2,3.1,7.2,6.9v6.9c0,3.8-3.2,6.9-7.2,6.9h-28.6c-3.9,0-7.2-3.1-7.2-6.9v-6.9
		C440.8,537.6,444,534.5,447.9,534.5z"/>
	<path class="st8" d="M447.9,658.4h93c4,0,7.2,3.1,7.2,6.9v6.9c0,3.8-3.2,6.9-7.2,6.9h-93c-3.9,0-7.2-3.1-7.2-6.9v-6.9
		C440.8,661.5,444,658.4,447.9,658.4z"/>
	<path class="st8" d="M447.9,617.1h28.6c3.9,0,7.2,3.1,7.2,6.9v6.9c0,3.8-3.2,6.9-7.2,6.9h-28.6c-3.9,0-7.2-3.1-7.2-6.9V624
		C440.8,620.2,444,617.1,447.9,617.1z"/>
	<path class="st8" d="M505.1,617.1h50.1c4,0,7.2,3.1,7.2,6.9v6.9c0,3.8-3.2,6.9-7.2,6.9h-50.1c-3.9,0-7.2-3.1-7.2-6.9V624
		C498,620.2,501.2,617.1,505.1,617.1z"/>
	<path class="st8" d="M447.9,699.7h28.6c3.9,0,7.2,3.1,7.2,6.9v6.9c0,3.8-3.2,6.9-7.2,6.9h-28.6c-3.9,0-7.2-3.1-7.2-6.9v-6.9
		C440.8,702.8,444,699.7,447.9,699.7z"/>
	<path class="st6" d="M844.9,410.6h57.2c5.9,0,10.7,4.6,10.7,10.3l0,0c0,5.7-4.8,10.3-10.7,10.3h-57.2c-5.9,0-10.7-4.6-10.7-10.3
		l0,0C834.1,415.2,838.9,410.6,844.9,410.6z"/>
	<path class="st6" d="M842.1,487h90.5c6.2,0,11.3,4.9,11.3,10.9l0,0c0,6-5.1,10.9-11.3,10.9h-90.5c-6.2,0-11.3-4.9-11.3-10.9l0,0
		C830.8,491.8,835.9,487,842.1,487z"/>
	<path class="st6" d="M842.1,574.1h60.3c6.2,0,11.3,4.9,11.3,10.9l0,0c0,6-5.1,10.9-11.3,10.9h-60.3c-6.2,0-11.3-4.9-11.3-10.9l0,0
		C830.8,579,835.9,574.1,842.1,574.1z"/>
	<path class="st12" d="M880.6,899.3h50.1c5.9,0,10.7,4.6,10.7,10.3l0,0c0,5.7-4.8,10.3-10.7,10.3h-50.1c-5.9,0-10.7-4.6-10.7-10.3
		l0,0C869.9,904,874.7,899.3,880.6,899.3z"/>
	<path class="st6" d="M844.9,899.3L844.9,899.3c5.9,0,10.7,4.6,10.7,10.3l0,0c0,5.7-4.8,10.3-10.7,10.3l0,0
		c-5.9,0-10.7-4.6-10.7-10.3l0,0C834.1,904,838.9,899.3,844.9,899.3z"/>
	<path class="st6" d="M844.9,451.9h21.5c5.9,0,10.7,4.6,10.7,10.3l0,0c0,5.7-4.8,10.3-10.7,10.3h-21.5c-5.9,0-10.7-4.6-10.7-10.3
		l0,0C834.1,456.5,838.9,451.9,844.9,451.9z"/>
	<path class="st6" d="M842.1,530.5h22.6c6.2,0,11.3,4.9,11.3,10.9l0,0c0,6-5.1,10.9-11.3,10.9h-22.6c-6.2,0-11.3-4.9-11.3-10.9l0,0
		C830.8,535.4,835.9,530.5,842.1,530.5z"/>
	<path class="st6" d="M902.5,530.5h7.5c6.2,0,11.3,4.9,11.3,10.9l0,0c0,6-5.1,10.9-11.3,10.9h-7.5c-6.2,0-11.3-4.9-11.3-10.9l0,0
		C891.1,535.4,896.2,530.5,902.5,530.5z"/>
	<path class="st6" d="M902.1,451.9H945c5.9,0,10.7,4.6,10.7,10.3l0,0c0,5.7-4.8,10.3-10.7,10.3h-42.9c-5.9,0-10.7-4.6-10.7-10.3l0,0
		C891.3,456.5,896.1,451.9,902.1,451.9z"/>
	<path class="st6" d="M842.1,617.6h22.6c6.2,0,11.3,4.9,11.3,10.9l0,0c0,6-5.1,10.9-11.3,10.9h-22.6c-6.2,0-11.3-4.9-11.3-10.9l0,0
		C830.8,622.5,835.9,617.6,842.1,617.6z"/>
	<path class="st6" d="M842.1,704.8h22.6c6.2,0,11.3,4.9,11.3,10.9l0,0c0,6-5.1,10.9-11.3,10.9h-22.6c-6.2,0-11.3-4.9-11.3-10.9l0,0
		C830.8,709.7,835.9,704.8,842.1,704.8z"/>
	<path class="st6" d="M902.5,704.8h7.5c6.2,0,11.3,4.9,11.3,10.9l0,0c0,6-5.1,10.9-11.3,10.9h-7.5c-6.2,0-11.3-4.9-11.3-10.9l0,0
		C891.1,709.7,896.2,704.8,902.5,704.8z"/>
	<path class="st6" d="M902.5,617.6h45.3c6.2,0,11.3,4.9,11.3,10.9l0,0c0,6-5.1,10.9-11.3,10.9h-45.3c-6.2,0-11.3-4.9-11.3-10.9l0,0
		C891.1,622.5,896.2,617.6,902.5,617.6z"/>
</g>
<path class="st8" d="M1236,751c-7.2,0-13,5.6-13,12.5s5.8,12.5,13,12.5c7.2,0,13-5.6,13-12.5S1243.2,751,1236,751 M59.1,245.1
	c0-6.9-5.8-12.5-13-12.5s-13,5.6-13,12.5c0,6.9,5.8,12.5,13,12.5C53.2,257.7,59.1,252.1,59.1,245.1L59.1,245.1 M1214.3,257.7h-8.7
	v-8.4c0-4.6-3.9-8.4-8.7-8.4c-4.8,0-8.7,3.7-8.7,8.4v8.4h-8.7c-4.8,0-8.7,3.7-8.7,8.4c0,4.6,3.9,8.4,8.7,8.4h8.7v8.4
	c0,4.6,3.9,8.4,8.7,8.4c4.8,0,8.7-3.7,8.7-8.4v-8.4h8.7c4.8,0,8.7-3.7,8.7-8.4C1222.9,261.4,1219.1,257.7,1214.3,257.7 M93.8,692.4
	h-8.7v-8.4c0-4.6-3.9-8.4-8.7-8.4s-8.7,3.7-8.7,8.4v8.4h-8.7c-4.8,0-8.7,3.7-8.7,8.4c0,4.6,3.9,8.4,8.7,8.4h8.7v8.4
	c0,4.6,3.9,8.4,8.7,8.4s8.7-3.7,8.7-8.4v-8.4h8.7c4.8,0,8.7-3.7,8.7-8.4C102.5,696.2,98.6,692.4,93.8,692.4"/>
<g>
	
		<image style="overflow:visible;opacity:0.75;" width="537" height="218" xlink:href="EDB86CCA.png"  transform="matrix(1 0 0 1 98 275)">
	</image>
	<g>
		<text transform="matrix(1 0 0 1 108.4514 431.2744)" class="st29 st30 st31">Query</text>
	</g>
</g>
<path class="st33" d="M1081.2,906.3c10.4,10.4,10.4,27.3,0,37.7c-10.4,10.4-27.3,10.4-37.7,0l-75.4-75.3c-0.6-0.8-1.1-1.7-1.6-2.6
	c-50,31.9-115.8,22.3-154.6-22.5c-0.1-0.1-0.4-0.2-0.5-0.3c-0.2-0.2-0.4-0.5-0.5-0.8c-0.3-0.4-0.7-0.7-0.9-1l0.1-0.1
	c-3.7-5.2-3.2-12.3,1.3-16.9c5.2-5.2,13.6-5.2,18.8,0c0.3,0.3,0.4,0.6,0.7,0.9l0.5-0.4c33.2,39.1,91.9,43.8,130.9,10.6
	c39.1-33.2,43.8-91.9,10.6-130.9c-33.2-39.1-91.9-43.8-130.9-10.6c-1.8,1.5-3.5,3.1-5.2,4.8l-0.1-0.1c-2.5,2.8-6,4.4-9.7,4.4
	c-7.4,0-13.3-6-13.3-13.3l0,0c0-3.9,1.9-7.6,4.9-10.1l-0.1-0.1c47.2-46.4,123-45.7,169.3,1.5c39.1,39.8,45.6,101.2,15.6,148.3
	c0.8,0.7,1.7,1,2.5,1.7L1081.2,906.3z M811.1,745.8c-1.3,6.3-2,12.8-2,19.2c0.1,4.8,0.6,9.7,1.5,14.4H810c0.3,3.8-1,7.6-3.7,10.3
	c-5.2,5.2-13.7,5.2-18.9,0c-1.8-2-3-4.6-3.5-7.3c0-0.2,0-0.4-0.1-0.6c0-0.7-0.1-1.4-0.1-2.1c-0.7-4.9-1.1-9.8-1.2-14.7
	c0-8.1,0.8-16.2,2.4-24.2l0.5,0.1c0.9-6.4,6.4-11.2,12.9-11.3c7.4,0,13.3,6,13.3,13.3l0,0c-0.1,1-0.3,1.9-0.7,2.8L811.1,745.8z"/>
</svg>
